<?xml version="1.0" encoding="utf-8" standalone="no"?>
<!DOCTYPE svg PUBLIC "-//W3C//DTD SVG 1.1//EN"
  "http://www.w3.org/Graphics/SVG/1.1/DTD/svg11.dtd">
<svg xmlns:xlink="http://www.w3.org/1999/xlink" width="926.920978pt" height="204.979127pt" viewBox="0 0 926.920978 204.979127" xmlns="http://www.w3.org/2000/svg" version="1.1">
 <metadata>
  <rdf:RDF xmlns:dc="http://purl.org/dc/elements/1.1/" xmlns:cc="http://creativecommons.org/ns#" xmlns:rdf="http://www.w3.org/1999/02/22-rdf-syntax-ns#">
   <cc:Work>
    <dc:type rdf:resource="http://purl.org/dc/dcmitype/StillImage"/>
    <dc:date>2021-11-20T14:21:47.168597</dc:date>
    <dc:format>image/svg+xml</dc:format>
    <dc:creator>
     <cc:Agent>
      <dc:title>Matplotlib v3.5.0, https://matplotlib.org/</dc:title>
     </cc:Agent>
    </dc:creator>
   </cc:Work>
  </rdf:RDF>
 </metadata>
 <defs>
  <style type="text/css">*{stroke-linejoin: round; stroke-linecap: butt}</style>
 </defs>
 <g id="figure_1">
  <g id="patch_1">
   <path d="M 0 204.979127 
L 926.920978 204.979127 
L 926.920978 0 
L 0 0 
z
" style="fill: #ffffff"/>
  </g>
  <g id="legend_1">
   <g id="patch_2">
    <path d="M 11.6 197.779127 
L 915.320978 197.779127 
Q 919.720978 197.779127 919.720978 193.379127 
L 919.720978 11.6 
Q 919.720978 7.2 915.320978 7.2 
L 11.6 7.2 
Q 7.2 7.2 7.2 11.6 
L 7.2 193.379127 
Q 7.2 197.779127 11.6 197.779127 
z
" style="fill: #ffffff; opacity: 0.8; stroke: #000000; stroke-linejoin: miter"/>
   </g>
   <g id="line2d_1">
    <path d="M 16 23.7 
L 38 23.7 
L 60 23.7 
" style="fill: none"/>
    <defs>
     <path id="md881143e23" d="M 0 -5 
L -5 5 
L 5 5 
z
" style="stroke: #377eb8; stroke-linejoin: miter"/>
    </defs>
    <g>
     <use xlink:href="#md881143e23" x="38" y="23.7" style="fill-opacity: 0; stroke: #377eb8; stroke-linejoin: miter"/>
    </g>
   </g>
   <g id="text_1">
    <!-- Robot -->
    <g transform="translate(77.6 31.4)scale(0.22 -0.22)">
     <defs>
      <path id="CMR17-52" d="M 2509 2156 
C 3117 2278 3629 2689 3629 3203 
C 3629 3806 2950 4352 2054 4352 
L 333 4352 
L 333 4185 
C 774 4185 845 4185 845 3896 
L 845 428 
C 845 140 774 140 333 140 
L 333 -26 
C 518 -13 851 -13 1050 -13 
C 1248 -13 1581 -13 1766 -26 
L 1766 140 
C 1325 140 1254 140 1254 428 
L 1254 2112 
L 2003 2112 
C 2368 2112 2573 1964 2662 1881 
C 2918 1632 2918 1459 2918 1024 
C 2918 595 2918 377 3110 160 
C 3354 -103 3680 -128 3821 -128 
C 4294 -128 4365 403 4365 512 
C 4365 550 4365 595 4307 595 
C 4256 595 4250 556 4250 531 
C 4218 115 4032 -26 3834 -26 
C 3482 -26 3443 377 3405 768 
C 3386 902 3373 998 3360 1139 
C 3322 1459 3270 1926 2509 2156 
z
M 1984 2214 
L 1254 2214 
L 1254 3935 
C 1254 4153 1267 4185 1523 4185 
L 1990 4185 
C 2522 4185 3142 3999 3142 3203 
C 3142 2374 2464 2214 1984 2214 
z
" transform="scale(0.015625)"/>
      <path id="CMR17-6f" d="M 2758 1356 
C 2758 2176 2163 2816 1466 2816 
C 768 2816 173 2176 173 1356 
C 173 550 768 -64 1466 -64 
C 2163 -64 2758 550 2758 1356 
z
M 1466 51 
C 1165 51 909 230 762 480 
C 602 768 582 1126 582 1408 
C 582 1676 595 2009 762 2297 
C 890 2508 1139 2713 1466 2713 
C 1754 2713 1997 2553 2150 2329 
C 2349 2028 2349 1606 2349 1408 
C 2349 1158 2336 774 2163 467 
C 1984 172 1709 51 1466 51 
z
" transform="scale(0.015625)"/>
      <path id="CMR17-62" d="M 960 4416 
L 198 4345 
L 198 4179 
C 576 4179 634 4141 634 3843 
L 634 -13 
L 749 -13 
L 934 445 
C 1120 141 1395 -64 1766 -64 
C 2406 -64 3053 503 3053 1382 
C 3053 2209 2477 2816 1830 2816 
C 1434 2816 1152 2603 960 2351 
L 960 4416 
z
M 973 2022 
C 973 2138 973 2157 1062 2293 
C 1312 2681 1670 2713 1792 2713 
C 1984 2713 2643 2610 2643 1388 
C 2643 109 1888 38 1734 38 
C 1536 38 1248 115 1043 490 
C 973 613 973 626 973 742 
L 973 2022 
z
" transform="scale(0.015625)"/>
      <path id="CMR17-74" d="M 966 2585 
L 1862 2585 
L 1862 2752 
L 966 2752 
L 966 3968 
L 851 3968 
C 838 3292 614 2700 70 2687 
L 70 2585 
L 627 2585 
L 627 778 
C 627 655 627 -64 1370 -64 
C 1747 -64 1965 308 1965 784 
L 1965 1151 
L 1850 1151 
L 1850 790 
C 1850 347 1677 51 1408 51 
C 1222 51 966 179 966 765 
L 966 2585 
z
" transform="scale(0.015625)"/>
     </defs>
     <use xlink:href="#CMR17-52" transform="scale(0.996264)"/>
     <use xlink:href="#CMR17-6f" transform="translate(67.791102 0)scale(0.996264)"/>
     <use xlink:href="#CMR17-62" transform="translate(113.481579 0)scale(0.996264)"/>
     <use xlink:href="#CMR17-6f" transform="translate(166.979388 0)scale(0.996264)"/>
     <use xlink:href="#CMR17-74" transform="translate(212.669865 0)scale(0.996264)"/>
    </g>
   </g>
   <g id="line2d_2">
    <path d="M 16 54.363188 
L 38 54.363188 
L 60 54.363188 
" style="fill: none"/>
    <defs>
     <path id="mf38a2c9e13" d="M -0 5 
L 5 -5 
L -5 -5 
z
" style="stroke: #984ea3; stroke-linejoin: miter"/>
    </defs>
    <g>
     <use xlink:href="#mf38a2c9e13" x="38" y="54.363188" style="fill-opacity: 0; stroke: #984ea3; stroke-linejoin: miter"/>
    </g>
   </g>
   <g id="text_2">
    <!-- Blocksworld-G -->
    <g transform="translate(77.6 62.063188)scale(0.22 -0.22)">
     <defs>
      <path id="CMR17-42" d="M 333 4352 
L 333 4185 
C 774 4185 845 4185 845 3897 
L 845 451 
C 845 166 774 166 333 166 
L 333 0 
L 2534 0 
C 3354 0 3885 578 3885 1155 
C 3885 1726 3360 2214 2675 2259 
C 3290 2380 3718 2790 3718 3276 
C 3718 3808 3194 4352 2368 4352 
L 333 4352 
z
M 1248 2304 
L 1248 3936 
C 1248 4153 1261 4185 1517 4185 
L 2336 4185 
C 2970 4185 3251 3673 3251 3276 
C 3251 2790 2861 2304 2170 2304 
L 1248 2304 
z
M 1517 166 
C 1261 166 1248 198 1248 413 
L 1248 2201 
L 2432 2201 
C 3091 2201 3411 1624 3411 1161 
C 3411 698 3046 166 2349 166 
L 1517 166 
z
" transform="scale(0.015625)"/>
      <path id="CMR17-6c" d="M 979 4416 
L 218 4345 
L 218 4179 
C 595 4179 653 4141 653 3835 
L 653 439 
C 653 198 627 166 218 166 
L 218 0 
C 371 12 653 12 813 12 
C 979 12 1261 12 1414 0 
L 1414 166 
C 1005 166 979 191 979 439 
L 979 4416 
z
" transform="scale(0.015625)"/>
      <path id="CMR17-63" d="M 2234 2240 
C 2112 2240 1933 2240 1933 2015 
C 1933 1836 2080 1785 2163 1785 
C 2208 1785 2394 1804 2394 2028 
C 2394 2476 1958 2816 1466 2816 
C 787 2816 211 2201 211 1379 
C 211 521 813 -64 1466 -64 
C 2259 -64 2458 676 2458 747 
C 2458 773 2451 792 2406 792 
C 2362 792 2355 786 2330 702 
C 2163 180 1798 51 1523 51 
C 1114 51 621 431 621 1385 
C 621 2358 1094 2700 1472 2700 
C 1722 2700 2093 2582 2234 2240 
z
" transform="scale(0.015625)"/>
      <path id="CMR17-6b" d="M 1670 1679 
C 1664 1692 1632 1730 1632 1749 
C 1632 1762 2086 2175 2144 2226 
C 2509 2532 2739 2563 2906 2570 
L 2906 2735 
C 2867 2735 2854 2735 2848 2729 
L 2534 2722 
C 2355 2722 2080 2722 1907 2735 
L 1907 2570 
C 1997 2563 2061 2513 2061 2423 
C 2061 2296 1933 2175 1926 2175 
L 960 1298 
L 960 4416 
L 198 4345 
L 198 4179 
C 576 4179 634 4141 634 3835 
L 634 439 
C 634 198 608 166 198 166 
L 198 0 
C 352 12 634 12 794 12 
C 954 12 1235 12 1389 0 
L 1389 166 
C 979 166 954 191 954 439 
L 954 1139 
L 1395 1540 
L 2042 586 
C 2118 471 2182 382 2182 299 
C 2182 185 2067 166 1990 166 
L 1990 0 
C 2144 12 2419 12 2579 12 
C 2694 12 2931 6 3040 0 
L 3040 166 
C 2739 166 2669 223 2477 503 
L 1670 1679 
z
" transform="scale(0.015625)"/>
      <path id="CMR17-73" d="M 1978 2688 
C 1978 2803 1971 2809 1933 2809 
C 1907 2809 1901 2803 1824 2707 
C 1805 2681 1747 2617 1728 2592 
C 1523 2809 1235 2816 1126 2816 
C 416 2816 160 2444 160 2073 
C 160 1497 813 1363 998 1324 
C 1402 1241 1542 1216 1677 1100 
C 1760 1024 1901 883 1901 652 
C 1901 384 1747 38 1158 38 
C 602 38 403 460 288 1024 
C 269 1113 269 1120 218 1120 
C 166 1120 160 1113 160 985 
L 160 64 
C 160 -52 166 -58 205 -58 
C 237 -58 243 -52 275 0 
C 314 57 410 211 448 275 
C 576 102 800 -64 1158 -64 
C 1792 -64 2131 281 2131 780 
C 2131 1107 1958 1280 1875 1356 
C 1683 1555 1459 1600 1190 1651 
C 838 1728 390 1817 390 2208 
C 390 2374 480 2726 1126 2726 
C 1811 2726 1850 2086 1862 1881 
C 1869 1849 1901 1843 1920 1843 
C 1978 1843 1978 1862 1978 1971 
L 1978 2688 
z
" transform="scale(0.015625)"/>
      <path id="CMR17-77" d="M 3725 2186 
C 3853 2566 4109 2579 4205 2585 
L 4205 2752 
C 4077 2745 3949 2739 3821 2739 
C 3699 2739 3424 2739 3315 2752 
L 3315 2585 
C 3514 2572 3622 2456 3622 2296 
C 3622 2251 3610 2193 3597 2148 
L 2995 398 
L 2342 2296 
C 2330 2341 2310 2392 2310 2418 
C 2310 2585 2528 2585 2630 2585 
L 2630 2752 
C 2483 2739 2214 2739 2061 2739 
C 1901 2739 1734 2739 1587 2752 
L 1587 2585 
C 1939 2585 1939 2572 2074 2167 
L 1485 443 
L 851 2302 
C 819 2386 819 2399 819 2418 
C 819 2585 1037 2585 1139 2585 
L 1139 2752 
C 986 2739 717 2739 557 2739 
C 416 2739 198 2739 64 2752 
L 64 2585 
C 346 2585 416 2566 486 2353 
L 1274 38 
C 1299 -45 1318 -64 1370 -64 
C 1414 -64 1440 -52 1472 44 
L 2131 1987 
L 2797 44 
C 2829 -52 2854 -64 2899 -64 
C 2950 -64 2970 -45 2995 38 
L 3725 2186 
z
" transform="scale(0.015625)"/>
      <path id="CMR17-72" d="M 960 1517 
C 960 2134 1222 2713 1702 2713 
C 1747 2713 1792 2707 1837 2687 
C 1837 2687 1696 2642 1696 2475 
C 1696 2321 1818 2257 1914 2257 
C 1990 2257 2131 2302 2131 2482 
C 2131 2687 1926 2816 1709 2816 
C 1222 2816 1011 2340 947 2115 
L 941 2115 
L 941 2816 
L 198 2745 
L 198 2578 
C 576 2578 634 2540 634 2231 
L 634 443 
C 634 198 608 166 198 166 
L 198 0 
C 352 12 646 12 813 12 
C 998 12 1325 12 1498 0 
L 1498 166 
C 1037 166 960 166 960 455 
L 960 1517 
z
" transform="scale(0.015625)"/>
      <path id="CMR17-64" d="M 1869 4345 
L 1869 4179 
C 2246 4179 2304 4141 2304 3843 
L 2304 2371 
C 2278 2403 2016 2816 1498 2816 
C 845 2816 211 2228 211 1376 
C 211 529 806 -64 1434 -64 
C 1978 -64 2259 361 2291 406 
L 2291 -64 
L 3066 -13 
L 3066 154 
C 2688 154 2630 193 2630 503 
L 2630 4416 
L 1869 4345 
z
M 2291 762 
C 2291 568 2176 393 2029 264 
C 1811 70 1594 38 1472 38 
C 1286 38 621 135 621 1369 
C 621 2636 1363 2713 1530 2713 
C 1824 2713 2061 2545 2208 2313 
C 2291 2177 2291 2157 2291 2041 
L 2291 762 
z
" transform="scale(0.015625)"/>
      <path id="CMR17-2d" d="M 1632 1254 
L 1632 1536 
L 26 1536 
L 26 1254 
L 1632 1254 
z
" transform="scale(0.015625)"/>
      <path id="CMR17-47" d="M 3974 1258 
C 3974 1503 3994 1536 4390 1536 
L 4390 1702 
C 4237 1689 3891 1689 3718 1689 
C 3539 1689 3040 1696 2797 1702 
L 2797 1536 
L 2989 1536 
C 3539 1536 3552 1464 3552 1232 
L 3552 806 
C 3552 96 2720 38 2522 38 
C 1862 38 781 496 781 2179 
C 781 3862 1843 4313 2464 4313 
C 3187 4313 3712 3681 3834 2785 
C 3846 2708 3846 2695 3904 2695 
C 3974 2695 3974 2708 3974 2824 
L 3974 4351 
C 3974 4467 3968 4473 3930 4473 
C 3904 4473 3898 4467 3853 4390 
L 3571 3849 
C 3258 4249 2874 4480 2381 4480 
C 1286 4480 294 3507 294 2179 
C 294 858 1267 -128 2394 -128 
C 2912 -128 3418 57 3616 425 
C 3725 161 3904 -20 3936 -20 
C 3968 -20 3974 -13 3974 102 
L 3974 1258 
z
" transform="scale(0.015625)"/>
     </defs>
     <use xlink:href="#CMR17-42" transform="scale(0.996264)"/>
     <use xlink:href="#CMR17-6c" transform="translate(65.188754 0)scale(0.996264)"/>
     <use xlink:href="#CMR17-6f" transform="translate(90.059813 0)scale(0.996264)"/>
     <use xlink:href="#CMR17-63" transform="translate(138.352729 0)scale(0.996264)"/>
     <use xlink:href="#CMR17-6b" transform="translate(176.235935 0)scale(0.996264)"/>
     <use xlink:href="#CMR17-73" transform="translate(224.528851 0)scale(0.996264)"/>
     <use xlink:href="#CMR17-77" transform="translate(260.330189 0)scale(0.996264)"/>
     <use xlink:href="#CMR17-6f" transform="translate(324.237615 0)scale(0.996264)"/>
     <use xlink:href="#CMR17-72" transform="translate(369.928093 0)scale(0.996264)"/>
     <use xlink:href="#CMR17-6c" transform="translate(405.20886 0)scale(0.996264)"/>
     <use xlink:href="#CMR17-64" transform="translate(430.079919 0)scale(0.996264)"/>
     <use xlink:href="#CMR17-2d" transform="translate(480.975289 0)scale(0.996264)"/>
     <use xlink:href="#CMR17-47" transform="translate(511.051255 0)scale(0.996264)"/>
    </g>
   </g>
   <g id="line2d_3">
    <path d="M 16 85.026376 
L 38 85.026376 
L 60 85.026376 
" style="fill: none"/>
    <defs>
     <path id="mb0570cb294" d="M 0 0 
L 0 5 
M 0 0 
L 4 -2.5 
M 0 0 
L -4 -2.5 
" style="stroke: #377eb8"/>
    </defs>
    <g>
     <use xlink:href="#mb0570cb294" x="38" y="85.026376" style="fill-opacity: 0; stroke: #377eb8"/>
    </g>
   </g>
   <g id="text_3">
    <!-- Woodworking -->
    <g transform="translate(77.6 92.726376)scale(0.22 -0.22)">
     <defs>
      <path id="CMR17-57" d="M 5523 3775 
C 5581 3948 5677 4173 6048 4185 
L 6048 4352 
C 5939 4345 5715 4339 5600 4339 
C 5440 4339 5158 4339 5005 4352 
L 5005 4185 
C 5293 4179 5414 4019 5414 3865 
C 5414 3820 5408 3794 5382 3724 
L 4390 557 
L 3347 3890 
C 3328 3955 3322 3980 3322 4006 
C 3322 4185 3603 4185 3725 4185 
L 3725 4352 
C 3539 4339 3219 4339 3021 4339 
C 2861 4339 2573 4339 2426 4352 
L 2426 4185 
C 2720 4185 2797 4166 2861 4051 
C 2886 3993 2989 3660 2989 3640 
C 2989 3615 2976 3576 2970 3557 
L 2029 564 
L 986 3890 
C 954 3980 954 3993 954 4006 
C 954 4185 1235 4185 1363 4185 
L 1363 4352 
C 1178 4339 858 4339 659 4339 
C 493 4339 211 4339 58 4352 
L 58 4185 
C 442 4185 467 4147 531 3942 
L 1779 -20 
C 1811 -116 1811 -128 1869 -128 
C 1920 -128 1939 -116 1965 -26 
L 3053 3448 
L 4141 -26 
C 4166 -116 4186 -128 4237 -128 
C 4294 -128 4294 -116 4326 -20 
L 5523 3775 
z
" transform="scale(0.015625)"/>
      <path id="CMR17-69" d="M 992 3961 
C 992 4102 877 4224 730 4224 
C 589 4224 467 4108 467 3961 
C 467 3820 582 3699 730 3699 
C 870 3699 992 3814 992 3961 
z
M 243 2745 
L 243 2579 
C 602 2579 653 2540 653 2231 
L 653 443 
C 653 198 627 166 218 166 
L 218 0 
C 371 12 646 12 806 12 
C 960 12 1222 12 1370 0 
L 1370 166 
C 992 166 979 205 979 436 
L 979 2816 
L 243 2745 
z
" transform="scale(0.015625)"/>
      <path id="CMR17-6e" d="M 2656 1954 
C 2656 2282 2592 2816 1837 2816 
C 1331 2816 1069 2424 973 2166 
L 966 2166 
L 966 2816 
L 211 2745 
L 211 2578 
C 589 2578 646 2540 646 2231 
L 646 443 
C 646 198 621 166 211 166 
L 211 0 
C 365 12 646 12 813 12 
C 979 12 1267 12 1421 0 
L 1421 166 
C 1011 166 986 192 986 443 
L 986 1678 
C 986 2269 1344 2713 1792 2713 
C 2266 2713 2317 2289 2317 1980 
L 2317 443 
C 2317 198 2291 166 1882 166 
L 1882 0 
C 2035 12 2317 12 2483 12 
C 2650 12 2938 12 3091 0 
L 3091 166 
C 2682 166 2656 192 2656 443 
L 2656 1954 
z
" transform="scale(0.015625)"/>
      <path id="CMR17-67" d="M 710 1165 
C 832 1068 1043 960 1299 960 
C 1805 960 2240 1359 2240 1895 
C 2240 2063 2189 2321 1997 2521 
C 2176 2713 2438 2777 2586 2777 
C 2611 2777 2650 2777 2682 2758 
C 2656 2751 2598 2726 2598 2623 
C 2598 2540 2656 2483 2739 2483 
C 2835 2483 2886 2547 2886 2630 
C 2886 2751 2790 2880 2586 2880 
C 2330 2880 2106 2758 1926 2591 
C 1734 2764 1504 2828 1299 2828 
C 794 2828 358 2431 358 1895 
C 358 1527 570 1294 634 1230 
C 442 1004 442 742 442 710 
C 442 544 506 300 723 166 
C 390 82 128 -184 128 -517 
C 128 -996 736 -1344 1466 -1344 
C 2170 -1344 2803 -1009 2803 -510 
C 2803 384 1856 384 1363 384 
C 1216 384 954 384 922 390 
C 723 422 589 601 589 825 
C 589 883 589 1024 710 1165 
z
M 1299 1068 
C 736 1068 736 1766 736 1895 
C 736 2024 736 2719 1299 2719 
C 1862 2719 1862 2024 1862 1895 
C 1862 1766 1862 1068 1299 1068 
z
M 1466 -1236 
C 826 -1236 384 -883 384 -517 
C 384 -311 493 -118 634 -11 
C 794 102 858 102 1293 102 
C 1818 102 2547 102 2547 -517 
C 2547 -883 2106 -1236 1466 -1236 
z
" transform="scale(0.015625)"/>
     </defs>
     <use xlink:href="#CMR17-57" transform="scale(0.996264)"/>
     <use xlink:href="#CMR17-6f" transform="translate(87.289395 0)scale(0.996264)"/>
     <use xlink:href="#CMR17-6f" transform="translate(135.58231 0)scale(0.996264)"/>
     <use xlink:href="#CMR17-64" transform="translate(183.875226 0)scale(0.996264)"/>
     <use xlink:href="#CMR17-77" transform="translate(234.770596 0)scale(0.996264)"/>
     <use xlink:href="#CMR17-6f" transform="translate(298.678023 0)scale(0.996264)"/>
     <use xlink:href="#CMR17-72" transform="translate(344.3685 0)scale(0.996264)"/>
     <use xlink:href="#CMR17-6b" transform="translate(379.649268 0)scale(0.996264)"/>
     <use xlink:href="#CMR17-69" transform="translate(427.942183 0)scale(0.996264)"/>
     <use xlink:href="#CMR17-6e" transform="translate(452.813242 0)scale(0.996264)"/>
     <use xlink:href="#CMR17-67" transform="translate(503.708612 0)scale(0.996264)"/>
    </g>
   </g>
   <g id="line2d_4">
    <path d="M 16 115.689564 
L 38 115.689564 
L 60 115.689564 
" style="fill: none"/>
    <defs>
     <path id="m3f11724589" d="M 0 5 
C 1.326016 5 2.597899 4.473168 3.535534 3.535534 
C 4.473168 2.597899 5 1.326016 5 0 
C 5 -1.326016 4.473168 -2.597899 3.535534 -3.535534 
C 2.597899 -4.473168 1.326016 -5 0 -5 
C -1.326016 -5 -2.597899 -4.473168 -3.535534 -3.535534 
C -4.473168 -2.597899 -5 -1.326016 -5 0 
C -5 1.326016 -4.473168 2.597899 -3.535534 3.535534 
C -2.597899 4.473168 -1.326016 5 0 5 
z
" style="stroke: #984ea3"/>
    </defs>
    <g>
     <use xlink:href="#m3f11724589" x="38" y="115.689564" style="fill-opacity: 0; stroke: #984ea3"/>
    </g>
   </g>
   <g id="text_4">
    <!-- Snake -->
    <g transform="translate(77.6 123.389564)scale(0.22 -0.22)">
     <defs>
      <path id="CMR17-53" d="M 2803 4351 
C 2803 4467 2797 4473 2758 4473 
C 2720 4473 2707 4447 2682 4390 
L 2490 3965 
C 2246 4320 1875 4480 1472 4480 
C 819 4480 294 3958 294 3301 
C 294 3101 339 2817 557 2546 
C 794 2250 1018 2198 1530 2063 
C 1722 2011 2042 1927 2106 1901 
C 2470 1747 2662 1360 2662 999 
C 2662 534 2336 38 1779 38 
C 1094 38 454 425 410 1328 
C 403 1431 397 1437 352 1437 
C 301 1437 294 1431 294 1302 
L 294 0 
C 294 -116 301 -122 339 -122 
C 384 -122 397 -90 486 109 
C 493 128 493 141 614 386 
C 934 -39 1472 -128 1779 -128 
C 2477 -128 2970 457 2970 1141 
C 2970 1476 2848 1734 2778 1850 
C 2509 2263 2221 2340 1914 2417 
C 1869 2437 1856 2437 1498 2527 
C 1152 2617 1005 2662 845 2836 
C 666 3036 602 3243 602 3449 
C 602 3868 934 4326 1478 4326 
C 2157 4326 2579 3842 2675 3036 
C 2694 2920 2701 2914 2746 2914 
C 2803 2914 2803 2933 2803 3043 
L 2803 4351 
z
" transform="scale(0.015625)"/>
      <path id="CMR17-61" d="M 2304 1656 
C 2304 2048 2304 2275 2035 2534 
C 1798 2751 1523 2816 1306 2816 
C 800 2816 435 2408 435 1977 
C 435 1740 627 1728 666 1728 
C 749 1728 896 1779 896 1958 
C 896 2118 774 2188 666 2188 
C 640 2188 608 2182 589 2176 
C 723 2594 1069 2713 1293 2713 
C 1613 2713 1965 2421 1965 1875 
L 1965 1632 
C 1587 1619 1133 1568 774 1373 
C 371 1147 256 822 256 576 
C 256 77 832 -64 1171 -64 
C 1523 -64 1850 135 1990 505 
C 2003 219 2182 -39 2464 -39 
C 2598 -39 2938 51 2938 563 
L 2938 926 
L 2822 926 
L 2822 557 
C 2822 161 2650 109 2566 109 
C 2304 109 2304 446 2304 732 
L 2304 1656 
z
M 1965 887 
C 1965 323 1568 38 1216 38 
C 896 38 646 278 646 576 
C 646 771 730 1114 1101 1322 
C 1408 1497 1760 1523 1965 1536 
L 1965 887 
z
" transform="scale(0.015625)"/>
      <path id="CMR17-65" d="M 2438 1503 
C 2464 1529 2464 1542 2464 1606 
C 2464 2251 2118 2816 1389 2816 
C 710 2816 173 2175 173 1394 
C 173 554 781 -64 1459 -64 
C 2176 -64 2458 619 2458 755 
C 2458 800 2419 800 2406 800 
C 2362 800 2355 787 2330 709 
C 2189 270 1837 51 1504 51 
C 1229 51 954 206 781 490 
C 582 819 582 1200 582 1503 
L 2438 1503 
z
M 589 1600 
C 634 2511 1126 2713 1382 2713 
C 1818 2713 2112 2308 2118 1600 
L 589 1600 
z
" transform="scale(0.015625)"/>
     </defs>
     <use xlink:href="#CMR17-53" transform="scale(0.996264)"/>
     <use xlink:href="#CMR17-6e" transform="translate(50.89537 0)scale(0.996264)"/>
     <use xlink:href="#CMR17-61" transform="translate(101.79074 0)scale(0.996264)"/>
     <use xlink:href="#CMR17-6b" transform="translate(147.481217 0)scale(0.996264)"/>
     <use xlink:href="#CMR17-65" transform="translate(193.171679 0)scale(0.996264)"/>
    </g>
   </g>
   <g id="line2d_5">
    <path d="M 16 146.352751 
L 38 146.352751 
L 60 146.352751 
" style="fill: none"/>
    <defs>
     <path id="mc50e171dc8" d="M -0 7.071068 
L 4.242641 0 
L -0 -7.071068 
L -4.242641 -0 
z
" style="stroke: #377eb8; stroke-linejoin: miter"/>
    </defs>
    <g>
     <use xlink:href="#mc50e171dc8" x="38" y="146.352751" style="fill-opacity: 0; stroke: #377eb8; stroke-linejoin: miter"/>
    </g>
   </g>
   <g id="text_5">
    <!-- Depots -->
    <g transform="translate(77.6 154.052751)scale(0.22 -0.22)">
     <defs>
      <path id="CMR17-44" d="M 333 4352 
L 333 4185 
C 774 4185 845 4185 845 3898 
L 845 453 
C 845 166 774 166 333 166 
L 333 0 
L 2368 0 
C 3398 0 4224 943 4224 2140 
C 4224 3344 3411 4352 2368 4352 
L 333 4352 
z
M 1523 166 
C 1267 166 1254 198 1254 414 
L 1254 3936 
C 1254 4153 1267 4185 1523 4185 
L 2240 4185 
C 2771 4185 3750 3873 3750 2140 
C 3750 1242 3488 879 3366 707 
C 3213 510 2848 166 2240 166 
L 1523 166 
z
" transform="scale(0.015625)"/>
      <path id="CMR17-70" d="M 1408 -1114 
C 998 -1114 973 -1088 973 -834 
L 973 380 
C 1158 109 1427 -64 1766 -64 
C 2406 -64 3053 503 3053 1382 
C 3053 2196 2496 2816 1837 2816 
C 1453 2816 1139 2603 960 2345 
L 960 2816 
L 198 2745 
L 198 2577 
C 576 2577 634 2539 634 2228 
L 634 -834 
C 634 -1081 608 -1114 198 -1114 
L 198 -1280 
C 352 -1268 634 -1268 800 -1268 
C 966 -1268 1254 -1268 1408 -1280 
L 1408 -1114 
z
M 973 2015 
C 973 2106 973 2241 1222 2481 
C 1254 2506 1472 2700 1792 2700 
C 2259 2700 2643 2112 2643 1376 
C 2643 639 2234 38 1728 38 
C 1498 38 1248 148 1056 451 
C 973 594 973 632 973 736 
L 973 2015 
z
" transform="scale(0.015625)"/>
     </defs>
     <use xlink:href="#CMR17-44" transform="scale(0.996264)"/>
     <use xlink:href="#CMR17-65" transform="translate(70.393556 0)scale(0.996264)"/>
     <use xlink:href="#CMR17-70" transform="translate(110.879216 0)scale(0.996264)"/>
     <use xlink:href="#CMR17-6f" transform="translate(164.377025 0)scale(0.996264)"/>
     <use xlink:href="#CMR17-74" transform="translate(210.067502 0)scale(0.996264)"/>
     <use xlink:href="#CMR17-73" transform="translate(245.34827 0)scale(0.996264)"/>
    </g>
   </g>
   <g id="line2d_6">
    <path d="M 16 177.015939 
L 38 177.015939 
L 60 177.015939 
" style="fill: none"/>
    <defs>
     <path id="m26a8d17693" d="M 0 -5 
L -5 5 
L 5 5 
z
" style="stroke: #984ea3; stroke-linejoin: miter"/>
    </defs>
    <g>
     <use xlink:href="#m26a8d17693" x="38" y="177.015939" style="fill-opacity: 0; stroke: #984ea3; stroke-linejoin: miter"/>
    </g>
   </g>
   <g id="text_6">
    <!-- Minecraft-R -->
    <g transform="translate(77.6 184.715939)scale(0.22 -0.22)">
     <defs>
      <path id="CMR17-4d" d="M 1338 4249 
C 1299 4345 1293 4352 1158 4352 
L 339 4352 
L 339 4185 
C 781 4185 851 4185 851 3898 
L 851 624 
C 851 465 851 166 339 166 
L 339 0 
C 486 12 755 12 915 12 
C 1075 12 1344 12 1491 0 
L 1491 166 
C 979 166 979 465 979 624 
L 979 4159 
L 986 4159 
L 2490 102 
C 2515 38 2528 0 2579 0 
C 2630 0 2643 38 2669 102 
L 4186 4191 
L 4192 4191 
L 4192 453 
C 4192 166 4122 166 3680 166 
L 3680 0 
C 3853 12 4198 12 4384 12 
C 4570 12 4922 12 5094 0 
L 5094 166 
C 4653 166 4582 166 4582 453 
L 4582 3898 
C 4582 4185 4653 4185 5094 4185 
L 5094 4352 
L 4282 4352 
C 4147 4352 4141 4345 4102 4249 
L 2720 516 
L 1338 4249 
z
" transform="scale(0.015625)"/>
      <path id="CMR17-66" d="M 979 2585 
L 1709 2585 
L 1709 2752 
L 966 2752 
L 966 3539 
C 966 4076 1235 4377 1510 4377 
C 1594 4377 1690 4363 1754 4339 
C 1702 4326 1568 4281 1568 4121 
C 1568 3955 1696 3904 1786 3904 
C 1875 3904 2003 3955 2003 4121 
C 2003 4353 1773 4480 1517 4480 
C 1152 4480 653 4211 653 3526 
L 653 2752 
L 141 2752 
L 141 2585 
L 653 2585 
L 653 441 
C 653 198 627 166 218 166 
L 218 0 
C 371 12 666 12 832 12 
C 1018 12 1344 12 1517 0 
L 1517 166 
C 1056 166 979 166 979 454 
L 979 2585 
z
" transform="scale(0.015625)"/>
     </defs>
     <use xlink:href="#CMR17-4d" transform="scale(0.996264)"/>
     <use xlink:href="#CMR17-69" transform="translate(84.686941 0)scale(0.996264)"/>
     <use xlink:href="#CMR17-6e" transform="translate(109.557999 0)scale(0.996264)"/>
     <use xlink:href="#CMR17-65" transform="translate(160.453369 0)scale(0.996264)"/>
     <use xlink:href="#CMR17-63" transform="translate(200.939029 0)scale(0.996264)"/>
     <use xlink:href="#CMR17-72" transform="translate(241.42469 0)scale(0.996264)"/>
     <use xlink:href="#CMR17-61" transform="translate(276.705458 0)scale(0.996264)"/>
     <use xlink:href="#CMR17-66" transform="translate(322.395935 0)scale(0.996264)"/>
     <use xlink:href="#CMR17-74" transform="translate(349.869447 0)scale(0.996264)"/>
     <use xlink:href="#CMR17-2d" transform="translate(385.150215 0)scale(0.996264)"/>
     <use xlink:href="#CMR17-52" transform="translate(415.226181 0)scale(0.996264)"/>
    </g>
   </g>
   <g id="line2d_7">
    <path d="M 249.949363 23.7 
L 271.949363 23.7 
L 293.949363 23.7 
" style="fill: none"/>
    <defs>
     <path id="m06473175fe" d="M -5 5 
L 5 5 
L 5 -5 
L -5 -5 
z
" style="stroke: #ff7f00; stroke-linejoin: miter"/>
    </defs>
    <g>
     <use xlink:href="#m06473175fe" x="271.949363" y="23.7" style="fill-opacity: 0; stroke: #ff7f00; stroke-linejoin: miter"/>
    </g>
   </g>
   <g id="text_7">
    <!-- Blocksworld-H -->
    <g transform="translate(311.549363 31.4)scale(0.22 -0.22)">
     <defs>
      <path id="CMR17-48" d="M 3590 3898 
C 3590 4185 3661 4185 4102 4185 
L 4102 4352 
C 3917 4339 3578 4339 3379 4339 
C 3181 4339 2842 4339 2656 4352 
L 2656 4185 
C 3098 4185 3168 4185 3168 3898 
L 3168 2342 
L 1261 2342 
L 1261 3898 
C 1261 4185 1331 4185 1773 4185 
L 1773 4352 
C 1587 4339 1248 4339 1050 4339 
C 851 4339 512 4339 326 4352 
L 326 4185 
C 768 4185 838 4185 838 3898 
L 838 452 
C 838 166 768 166 326 166 
L 326 0 
C 512 12 851 12 1050 12 
C 1248 12 1587 12 1773 0 
L 1773 166 
C 1331 166 1261 166 1261 452 
L 1261 2176 
L 3168 2176 
L 3168 452 
C 3168 166 3098 166 2656 166 
L 2656 0 
C 2842 12 3181 12 3379 12 
C 3578 12 3917 12 4102 0 
L 4102 166 
C 3661 166 3590 166 3590 452 
L 3590 3898 
z
" transform="scale(0.015625)"/>
     </defs>
     <use xlink:href="#CMR17-42" transform="scale(0.996264)"/>
     <use xlink:href="#CMR17-6c" transform="translate(65.188754 0)scale(0.996264)"/>
     <use xlink:href="#CMR17-6f" transform="translate(90.059813 0)scale(0.996264)"/>
     <use xlink:href="#CMR17-63" transform="translate(138.352729 0)scale(0.996264)"/>
     <use xlink:href="#CMR17-6b" transform="translate(176.235935 0)scale(0.996264)"/>
     <use xlink:href="#CMR17-73" transform="translate(224.528851 0)scale(0.996264)"/>
     <use xlink:href="#CMR17-77" transform="translate(260.330189 0)scale(0.996264)"/>
     <use xlink:href="#CMR17-6f" transform="translate(324.237615 0)scale(0.996264)"/>
     <use xlink:href="#CMR17-72" transform="translate(369.928093 0)scale(0.996264)"/>
     <use xlink:href="#CMR17-6c" transform="translate(405.20886 0)scale(0.996264)"/>
     <use xlink:href="#CMR17-64" transform="translate(430.079919 0)scale(0.996264)"/>
     <use xlink:href="#CMR17-2d" transform="translate(480.975289 0)scale(0.996264)"/>
     <use xlink:href="#CMR17-48" transform="translate(511.051255 0)scale(0.996264)"/>
    </g>
   </g>
   <g id="line2d_8">
    <path d="M 249.949363 54.363188 
L 271.949363 54.363188 
L 293.949363 54.363188 
" style="fill: none"/>
    <defs>
     <path id="m65760c9ddc" d="M 0 -5 
L -4.755283 -1.545085 
L -2.938926 4.045085 
L 2.938926 4.045085 
L 4.755283 -1.545085 
z
" style="stroke: #999999; stroke-linejoin: miter"/>
    </defs>
    <g>
     <use xlink:href="#m65760c9ddc" x="271.949363" y="54.363188" style="fill-opacity: 0; stroke: #999999; stroke-linejoin: miter"/>
    </g>
   </g>
   <g id="text_8">
    <!-- Satellite -->
    <g transform="translate(311.549363 62.063188)scale(0.22 -0.22)">
     <use xlink:href="#CMR17-53" transform="scale(0.996264)"/>
     <use xlink:href="#CMR17-61" transform="translate(50.89537 0)scale(0.996264)"/>
     <use xlink:href="#CMR17-74" transform="translate(96.585847 0)scale(0.996264)"/>
     <use xlink:href="#CMR17-65" transform="translate(131.866615 0)scale(0.996264)"/>
     <use xlink:href="#CMR17-6c" transform="translate(172.352275 0)scale(0.996264)"/>
     <use xlink:href="#CMR17-6c" transform="translate(197.223334 0)scale(0.996264)"/>
     <use xlink:href="#CMR17-69" transform="translate(222.094392 0)scale(0.996264)"/>
     <use xlink:href="#CMR17-74" transform="translate(246.965451 0)scale(0.996264)"/>
     <use xlink:href="#CMR17-65" transform="translate(282.246218 0)scale(0.996264)"/>
    </g>
   </g>
   <g id="line2d_9">
    <path d="M 249.949363 85.026376 
L 271.949363 85.026376 
L 293.949363 85.026376 
" style="fill: none"/>
    <defs>
     <path id="m567d1940b4" d="M 0 0 
L 0 -5 
M 0 0 
L -4 2.5 
M 0 0 
L 4 2.5 
" style="stroke: #ff7f00"/>
    </defs>
    <g>
     <use xlink:href="#m567d1940b4" x="271.949363" y="85.026376" style="fill-opacity: 0; stroke: #ff7f00"/>
    </g>
   </g>
   <g id="text_9">
    <!-- Barman -->
    <g transform="translate(311.549363 92.726376)scale(0.22 -0.22)">
     <defs>
      <path id="CMR17-6d" d="M 4326 1954 
C 4326 2276 4269 2816 3507 2816 
C 3072 2816 2771 2520 2656 2173 
L 2650 2173 
C 2573 2700 2195 2816 1837 2816 
C 1331 2816 1069 2424 973 2166 
L 966 2166 
L 966 2816 
L 211 2745 
L 211 2578 
C 589 2578 646 2540 646 2231 
L 646 443 
C 646 198 621 166 211 166 
L 211 0 
C 365 12 646 12 813 12 
C 979 12 1267 12 1421 0 
L 1421 166 
C 1011 166 986 192 986 443 
L 986 1678 
C 986 2269 1344 2713 1792 2713 
C 2266 2713 2317 2289 2317 1980 
L 2317 443 
C 2317 198 2291 166 1882 166 
L 1882 0 
C 2035 12 2317 12 2483 12 
C 2650 12 2938 12 3091 0 
L 3091 166 
C 2682 166 2656 192 2656 443 
L 2656 1678 
C 2656 2269 3014 2713 3462 2713 
C 3936 2713 3987 2289 3987 1980 
L 3987 443 
C 3987 198 3962 166 3552 166 
L 3552 0 
C 3706 12 3987 12 4154 12 
C 4320 12 4608 12 4762 0 
L 4762 166 
C 4352 166 4326 192 4326 443 
L 4326 1954 
z
" transform="scale(0.015625)"/>
     </defs>
     <use xlink:href="#CMR17-42" transform="scale(0.996264)"/>
     <use xlink:href="#CMR17-61" transform="translate(65.188754 0)scale(0.996264)"/>
     <use xlink:href="#CMR17-72" transform="translate(110.879232 0)scale(0.996264)"/>
     <use xlink:href="#CMR17-6d" transform="translate(146.159999 0)scale(0.996264)"/>
     <use xlink:href="#CMR17-61" transform="translate(223.079589 0)scale(0.996264)"/>
     <use xlink:href="#CMR17-6e" transform="translate(268.770066 0)scale(0.996264)"/>
    </g>
   </g>
   <g id="line2d_10">
    <path d="M 249.949363 115.689564 
L 271.949363 115.689564 
L 293.949363 115.689564 
" style="fill: none"/>
    <defs>
     <path id="m6433eae3f3" d="M 0 -5 
L -1.12257 -1.545085 
L -4.755283 -1.545085 
L -1.816356 0.59017 
L -2.938926 4.045085 
L -0 1.90983 
L 2.938926 4.045085 
L 1.816356 0.59017 
L 4.755283 -1.545085 
L 1.12257 -1.545085 
z
" style="stroke: #999999; stroke-linejoin: bevel"/>
    </defs>
    <g>
     <use xlink:href="#m6433eae3f3" x="271.949363" y="115.689564" style="fill-opacity: 0; stroke: #999999; stroke-linejoin: bevel"/>
    </g>
   </g>
   <g id="text_10">
    <!-- Factories -->
    <g transform="translate(311.549363 123.389564)scale(0.22 -0.22)">
     <defs>
      <path id="CMR17-46" d="M 3482 4339 
L 326 4339 
L 326 4172 
C 768 4172 838 4172 838 3883 
L 838 450 
C 838 166 768 166 326 166 
L 326 0 
C 512 12 870 12 1069 12 
C 1331 12 1638 12 1901 0 
L 1901 166 
L 1760 166 
C 1274 166 1261 229 1261 456 
L 1261 2073 
L 1837 2073 
C 2432 2073 2490 1865 2490 1334 
L 2605 1334 
L 2605 2991 
L 2490 2991 
C 2490 2451 2432 2240 1837 2240 
L 1261 2240 
L 1261 3922 
C 1261 4140 1274 4172 1530 4172 
L 2355 4172 
C 3322 4172 3430 3774 3520 2920 
L 3635 2920 
L 3482 4339 
z
" transform="scale(0.015625)"/>
     </defs>
     <use xlink:href="#CMR17-46" transform="scale(0.996264)"/>
     <use xlink:href="#CMR17-61" transform="translate(52.176591 0)scale(0.996264)"/>
     <use xlink:href="#CMR17-63" transform="translate(97.867068 0)scale(0.996264)"/>
     <use xlink:href="#CMR17-74" transform="translate(138.352729 0)scale(0.996264)"/>
     <use xlink:href="#CMR17-6f" transform="translate(173.633497 0)scale(0.996264)"/>
     <use xlink:href="#CMR17-72" transform="translate(219.323974 0)scale(0.996264)"/>
     <use xlink:href="#CMR17-69" transform="translate(254.604741 0)scale(0.996264)"/>
     <use xlink:href="#CMR17-65" transform="translate(279.4758 0)scale(0.996264)"/>
     <use xlink:href="#CMR17-73" transform="translate(319.96146 0)scale(0.996264)"/>
    </g>
   </g>
   <g id="line2d_11">
    <path d="M 249.949363 146.352751 
L 271.949363 146.352751 
L 293.949363 146.352751 
" style="fill: none"/>
    <defs>
     <path id="m1badb065fd" d="M -0 7.071068 
L 7.071068 0 
L 0 -7.071068 
L -7.071068 -0 
z
" style="stroke: #ff7f00; stroke-linejoin: miter"/>
    </defs>
    <g>
     <use xlink:href="#m1badb065fd" x="271.949363" y="146.352751" style="fill-opacity: 0; stroke: #ff7f00; stroke-linejoin: miter"/>
    </g>
   </g>
   <g id="text_11">
    <!-- Monroe-FO -->
    <g transform="translate(311.549363 154.052751)scale(0.22 -0.22)">
     <defs>
      <path id="CMR17-4f" d="M 4307 2166 
C 4307 3488 3366 4480 2304 4480 
C 1216 4480 294 3475 294 2166 
C 294 857 1229 -128 2298 -128 
C 3392 -128 4307 876 4307 2166 
z
M 2304 -13 
C 1574 -13 781 722 781 2250 
C 781 3771 1651 4364 2298 4364 
C 2976 4364 3821 3752 3821 2250 
C 3821 696 3008 -13 2304 -13 
z
" transform="scale(0.015625)"/>
     </defs>
     <use xlink:href="#CMR17-4d" transform="scale(0.996264)"/>
     <use xlink:href="#CMR17-6f" transform="translate(84.686941 0)scale(0.996264)"/>
     <use xlink:href="#CMR17-6e" transform="translate(130.377418 0)scale(0.996264)"/>
     <use xlink:href="#CMR17-72" transform="translate(181.272787 0)scale(0.996264)"/>
     <use xlink:href="#CMR17-6f" transform="translate(216.553555 0)scale(0.996264)"/>
     <use xlink:href="#CMR17-65" transform="translate(264.846471 0)scale(0.996264)"/>
     <use xlink:href="#CMR17-2d" transform="translate(305.332132 0)scale(0.996264)"/>
     <use xlink:href="#CMR17-46" transform="translate(335.408098 0)scale(0.996264)"/>
     <use xlink:href="#CMR17-4f" transform="translate(392.789491 0)scale(0.996264)"/>
    </g>
   </g>
   <g id="line2d_12">
    <path d="M 249.949363 177.015939 
L 271.949363 177.015939 
L 293.949363 177.015939 
" style="fill: none"/>
    <defs>
     <path id="m559aa057eb" d="M -5 5 
L 5 5 
L 5 -5 
L -5 -5 
z
" style="stroke: #999999; stroke-linejoin: miter"/>
    </defs>
    <g>
     <use xlink:href="#m559aa057eb" x="271.949363" y="177.015939" style="fill-opacity: 0; stroke: #999999; stroke-linejoin: miter"/>
    </g>
   </g>
   <g id="text_12">
    <!-- Multiarm-B -->
    <g transform="translate(311.549363 184.715939)scale(0.22 -0.22)">
     <defs>
      <path id="CMR17-75" d="M 1882 2745 
L 1882 2579 
C 2259 2579 2317 2540 2317 2229 
L 2317 1053 
C 2317 510 2029 38 1555 38 
C 1030 38 986 355 986 691 
L 986 2816 
L 211 2745 
L 211 2579 
C 467 2579 640 2579 646 2320 
L 646 1079 
C 646 646 646 368 813 187 
C 896 103 1056 -64 1517 -64 
C 2061 -64 2272 400 2323 536 
L 2330 536 
L 2330 -64 
L 3091 -13 
L 3091 154 
C 2714 154 2656 193 2656 503 
L 2656 2816 
L 1882 2745 
z
" transform="scale(0.015625)"/>
     </defs>
     <use xlink:href="#CMR17-4d" transform="scale(0.996264)"/>
     <use xlink:href="#CMR17-75" transform="translate(84.686941 0)scale(0.996264)"/>
     <use xlink:href="#CMR17-6c" transform="translate(135.58231 0)scale(0.996264)"/>
     <use xlink:href="#CMR17-74" transform="translate(160.453369 0)scale(0.996264)"/>
     <use xlink:href="#CMR17-69" transform="translate(195.734137 0)scale(0.996264)"/>
     <use xlink:href="#CMR17-61" transform="translate(220.605195 0)scale(0.996264)"/>
     <use xlink:href="#CMR17-72" transform="translate(266.295672 0)scale(0.996264)"/>
     <use xlink:href="#CMR17-6d" transform="translate(301.57644 0)scale(0.996264)"/>
     <use xlink:href="#CMR17-2d" transform="translate(378.49603 0)scale(0.996264)"/>
     <use xlink:href="#CMR17-42" transform="translate(408.571996 0)scale(0.996264)"/>
    </g>
   </g>
   <g id="line2d_13">
    <path d="M 483.17649 23.7 
L 505.17649 23.7 
L 527.17649 23.7 
" style="fill: none"/>
    <defs>
     <path id="m13e3b41c3e" d="M 0 5 
C 1.326016 5 2.597899 4.473168 3.535534 3.535534 
C 4.473168 2.597899 5 1.326016 5 0 
C 5 -1.326016 4.473168 -2.597899 3.535534 -3.535534 
C 2.597899 -4.473168 1.326016 -5 0 -5 
C -1.326016 -5 -2.597899 -4.473168 -3.535534 -3.535534 
C -4.473168 -2.597899 -5 -1.326016 -5 0 
C -5 1.326016 -4.473168 2.597899 -3.535534 3.535534 
C -2.597899 4.473168 -1.326016 5 0 5 
z
" style="stroke: #e41a1c"/>
    </defs>
    <g>
     <use xlink:href="#m13e3b41c3e" x="505.17649" y="23.7" style="fill-opacity: 0; stroke: #e41a1c"/>
    </g>
   </g>
   <g id="text_13">
    <!-- Monroe-PO -->
    <g transform="translate(544.77649 31.4)scale(0.22 -0.22)">
     <defs>
      <path id="CMR17-50" d="M 1267 2048 
L 2291 2048 
C 3117 2048 3718 2583 3718 3187 
C 3718 3791 3130 4352 2291 4352 
L 333 4352 
L 333 4185 
C 774 4185 845 4185 845 3899 
L 845 453 
C 845 166 774 166 333 166 
L 333 0 
C 518 12 858 12 1056 12 
C 1254 12 1594 12 1779 0 
L 1779 166 
C 1338 166 1267 166 1267 453 
L 1267 2048 
z
M 1254 2182 
L 1254 3937 
C 1254 4153 1267 4185 1523 4185 
L 2170 4185 
C 2995 4185 3232 3715 3232 3187 
C 3232 2608 2950 2182 2170 2182 
L 1254 2182 
z
" transform="scale(0.015625)"/>
     </defs>
     <use xlink:href="#CMR17-4d" transform="scale(0.996264)"/>
     <use xlink:href="#CMR17-6f" transform="translate(84.686941 0)scale(0.996264)"/>
     <use xlink:href="#CMR17-6e" transform="translate(130.377418 0)scale(0.996264)"/>
     <use xlink:href="#CMR17-72" transform="translate(181.272787 0)scale(0.996264)"/>
     <use xlink:href="#CMR17-6f" transform="translate(216.553555 0)scale(0.996264)"/>
     <use xlink:href="#CMR17-65" transform="translate(264.846471 0)scale(0.996264)"/>
     <use xlink:href="#CMR17-2d" transform="translate(305.332132 0)scale(0.996264)"/>
     <use xlink:href="#CMR17-50" transform="translate(335.408098 0)scale(0.996264)"/>
     <use xlink:href="#CMR17-4f" transform="translate(397.994398 0)scale(0.996264)"/>
    </g>
   </g>
   <g id="line2d_14">
    <path d="M 483.17649 54.363188 
L 505.17649 54.363188 
L 527.17649 54.363188 
" style="fill: none"/>
    <defs>
     <path id="m3d81383d77" d="M -0 7.071068 
L 4.242641 0 
L -0 -7.071068 
L -4.242641 -0 
z
" style="stroke: #dede00; stroke-linejoin: miter"/>
    </defs>
    <g>
     <use xlink:href="#m3d81383d77" x="505.17649" y="54.363188" style="fill-opacity: 0; stroke: #dede00; stroke-linejoin: miter"/>
    </g>
   </g>
   <g id="text_14">
    <!-- Transport -->
    <g transform="translate(544.77649 62.063188)scale(0.22 -0.22)">
     <defs>
      <path id="CMR17-54" d="M 3981 4332 
L 288 4332 
L 179 2924 
L 294 2924 
C 378 3981 467 4166 1453 4166 
C 1568 4166 1754 4166 1805 4159 
C 1926 4140 1926 4064 1926 3917 
L 1926 465 
C 1926 236 1907 166 1376 166 
L 1197 166 
L 1197 0 
C 1504 6 1824 12 2138 12 
C 2451 12 2771 6 3078 0 
L 3078 166 
L 2899 166 
C 2368 166 2349 236 2349 465 
L 2349 3917 
C 2349 4057 2349 4134 2464 4159 
C 2515 4166 2701 4166 2816 4166 
C 3795 4166 3891 3981 3974 2924 
L 4090 2924 
L 3981 4332 
z
" transform="scale(0.015625)"/>
     </defs>
     <use xlink:href="#CMR17-54" transform="scale(0.996264)"/>
     <use xlink:href="#CMR17-72" transform="translate(58.702625 0)scale(0.996264)"/>
     <use xlink:href="#CMR17-61" transform="translate(93.983393 0)scale(0.996264)"/>
     <use xlink:href="#CMR17-6e" transform="translate(139.67387 0)scale(0.996264)"/>
     <use xlink:href="#CMR17-73" transform="translate(190.56924 0)scale(0.996264)"/>
     <use xlink:href="#CMR17-70" transform="translate(226.370577 0)scale(0.996264)"/>
     <use xlink:href="#CMR17-6f" transform="translate(279.868386 0)scale(0.996264)"/>
     <use xlink:href="#CMR17-72" transform="translate(325.558863 0)scale(0.996264)"/>
     <use xlink:href="#CMR17-74" transform="translate(360.839631 0)scale(0.996264)"/>
    </g>
   </g>
   <g id="line2d_15">
    <path d="M 483.17649 85.026376 
L 505.17649 85.026376 
L 527.17649 85.026376 
" style="fill: none"/>
    <defs>
     <path id="m4a32720932" d="M 0 -5 
L -5 5 
L 5 5 
z
" style="stroke: #e41a1c; stroke-linejoin: miter"/>
    </defs>
    <g>
     <use xlink:href="#m4a32720932" x="505.17649" y="85.026376" style="fill-opacity: 0; stroke: #e41a1c; stroke-linejoin: miter"/>
    </g>
   </g>
   <g id="text_15">
    <!-- Entertainment -->
    <g transform="translate(544.77649 92.726376)scale(0.22 -0.22)">
     <defs>
      <path id="CMR17-45" d="M 3885 1614 
L 3770 1614 
C 3629 676 3546 166 2419 166 
L 1530 166 
C 1274 166 1261 198 1261 415 
L 1261 2176 
L 1862 2176 
C 2464 2176 2522 1959 2522 1429 
L 2637 1429 
L 2637 3086 
L 2522 3086 
C 2522 2558 2464 2342 1862 2342 
L 1261 2342 
L 1261 3924 
C 1261 4141 1274 4172 1530 4172 
L 2406 4172 
C 3398 4172 3514 3778 3603 2933 
L 3718 2933 
L 3565 4339 
L 326 4339 
L 326 4172 
C 768 4172 838 4172 838 3886 
L 838 453 
C 838 166 768 166 326 166 
L 326 0 
L 3654 0 
L 3885 1614 
z
" transform="scale(0.015625)"/>
     </defs>
     <use xlink:href="#CMR17-45" transform="scale(0.996264)"/>
     <use xlink:href="#CMR17-6e" transform="translate(62.586301 0)scale(0.996264)"/>
     <use xlink:href="#CMR17-74" transform="translate(110.879216 0)scale(0.996264)"/>
     <use xlink:href="#CMR17-65" transform="translate(146.159984 0)scale(0.996264)"/>
     <use xlink:href="#CMR17-72" transform="translate(186.645645 0)scale(0.996264)"/>
     <use xlink:href="#CMR17-74" transform="translate(221.926412 0)scale(0.996264)"/>
     <use xlink:href="#CMR17-61" transform="translate(257.20718 0)scale(0.996264)"/>
     <use xlink:href="#CMR17-69" transform="translate(302.897657 0)scale(0.996264)"/>
     <use xlink:href="#CMR17-6e" transform="translate(327.768716 0)scale(0.996264)"/>
     <use xlink:href="#CMR17-6d" transform="translate(378.664086 0)scale(0.996264)"/>
     <use xlink:href="#CMR17-65" transform="translate(455.583675 0)scale(0.996264)"/>
     <use xlink:href="#CMR17-6e" transform="translate(496.069336 0)scale(0.996264)"/>
     <use xlink:href="#CMR17-74" transform="translate(544.362252 0)scale(0.996264)"/>
    </g>
   </g>
   <g id="line2d_16">
    <path d="M 483.17649 115.689564 
L 505.17649 115.689564 
L 527.17649 115.689564 
" style="fill: none"/>
    <defs>
     <path id="m0169dc3872" d="M -0 5 
L 5 -5 
L -5 -5 
z
" style="stroke: #dede00; stroke-linejoin: miter"/>
    </defs>
    <g>
     <use xlink:href="#m0169dc3872" x="505.17649" y="115.689564" style="fill-opacity: 0; stroke: #dede00; stroke-linejoin: miter"/>
    </g>
   </g>
   <g id="text_16">
    <!-- Elevator -->
    <g transform="translate(544.77649 123.389564)scale(0.22 -0.22)">
     <defs>
      <path id="CMR17-76" d="M 2502 2173 
C 2560 2315 2662 2572 3034 2585 
L 3034 2752 
C 2912 2745 2752 2739 2630 2739 
C 2496 2739 2285 2739 2157 2752 
L 2157 2585 
C 2317 2572 2406 2495 2406 2328 
C 2406 2270 2406 2257 2368 2167 
L 1664 379 
L 902 2308 
C 864 2392 864 2405 864 2431 
C 864 2585 1075 2585 1171 2585 
L 1171 2752 
C 1018 2739 736 2739 576 2739 
C 403 2739 205 2739 64 2752 
L 64 2585 
C 307 2585 442 2585 518 2386 
L 1446 44 
C 1485 -52 1491 -64 1549 -64 
C 1606 -64 1613 -52 1651 44 
L 2502 2173 
z
" transform="scale(0.015625)"/>
     </defs>
     <use xlink:href="#CMR17-45" transform="scale(0.996264)"/>
     <use xlink:href="#CMR17-6c" transform="translate(62.586301 0)scale(0.996264)"/>
     <use xlink:href="#CMR17-65" transform="translate(87.457359 0)scale(0.996264)"/>
     <use xlink:href="#CMR17-76" transform="translate(127.943019 0)scale(0.996264)"/>
     <use xlink:href="#CMR17-61" transform="translate(171.031119 0)scale(0.996264)"/>
     <use xlink:href="#CMR17-74" transform="translate(216.721596 0)scale(0.996264)"/>
     <use xlink:href="#CMR17-6f" transform="translate(252.002364 0)scale(0.996264)"/>
     <use xlink:href="#CMR17-72" transform="translate(297.692841 0)scale(0.996264)"/>
    </g>
   </g>
   <g id="line2d_17">
    <path d="M 483.17649 146.352751 
L 505.17649 146.352751 
L 527.17649 146.352751 
" style="fill: none"/>
    <defs>
     <path id="m77d0a81c31" d="M 0 0 
L 0 5 
M 0 0 
L 4 -2.5 
M 0 0 
L -4 -2.5 
" style="stroke: #e41a1c"/>
    </defs>
    <g>
     <use xlink:href="#m77d0a81c31" x="505.17649" y="146.352751" style="fill-opacity: 0; stroke: #e41a1c"/>
    </g>
   </g>
   <g id="text_17">
    <!-- Freecell -->
    <g transform="translate(544.77649 154.052751)scale(0.22 -0.22)">
     <use xlink:href="#CMR17-46" transform="scale(0.996264)"/>
     <use xlink:href="#CMR17-72" transform="translate(52.176591 0)scale(0.996264)"/>
     <use xlink:href="#CMR17-65" transform="translate(87.457359 0)scale(0.996264)"/>
     <use xlink:href="#CMR17-65" transform="translate(127.943019 0)scale(0.996264)"/>
     <use xlink:href="#CMR17-63" transform="translate(168.42868 0)scale(0.996264)"/>
     <use xlink:href="#CMR17-65" transform="translate(208.91434 0)scale(0.996264)"/>
     <use xlink:href="#CMR17-6c" transform="translate(249.400001 0)scale(0.996264)"/>
     <use xlink:href="#CMR17-6c" transform="translate(274.271059 0)scale(0.996264)"/>
    </g>
   </g>
   <g id="line2d_18">
    <path d="M 483.17649 177.015939 
L 505.17649 177.015939 
L 527.17649 177.015939 
" style="fill: none"/>
    <defs>
     <path id="mcf101650f6" d="M 0 5 
C 1.326016 5 2.597899 4.473168 3.535534 3.535534 
C 4.473168 2.597899 5 1.326016 5 0 
C 5 -1.326016 4.473168 -2.597899 3.535534 -3.535534 
C 2.597899 -4.473168 1.326016 -5 0 -5 
C -1.326016 -5 -2.597899 -4.473168 -3.535534 -3.535534 
C -4.473168 -2.597899 -5 -1.326016 -5 0 
C -5 1.326016 -4.473168 2.597899 -3.535534 3.535534 
C -2.597899 4.473168 -1.326016 5 0 5 
z
" style="stroke: #dede00"/>
    </defs>
    <g>
     <use xlink:href="#mcf101650f6" x="505.17649" y="177.015939" style="fill-opacity: 0; stroke: #dede00"/>
    </g>
   </g>
   <g id="text_18">
    <!-- Towers -->
    <g transform="translate(544.77649 184.715939)scale(0.22 -0.22)">
     <use xlink:href="#CMR17-54" transform="scale(0.996264)"/>
     <use xlink:href="#CMR17-6f" transform="translate(58.702625 0)scale(0.996264)"/>
     <use xlink:href="#CMR17-77" transform="translate(101.790648 0)scale(0.996264)"/>
     <use xlink:href="#CMR17-65" transform="translate(165.698075 0)scale(0.996264)"/>
     <use xlink:href="#CMR17-72" transform="translate(206.183735 0)scale(0.996264)"/>
     <use xlink:href="#CMR17-73" transform="translate(241.464503 0)scale(0.996264)"/>
    </g>
   </g>
   <g id="line2d_19">
    <path d="M 716.297872 23.7 
L 738.297872 23.7 
L 760.297872 23.7 
" style="fill: none"/>
    <defs>
     <path id="m7bdfa6c5f2" d="M 0 -5 
L -1.12257 -1.545085 
L -4.755283 -1.545085 
L -1.816356 0.59017 
L -2.938926 4.045085 
L -0 1.90983 
L 2.938926 4.045085 
L 1.816356 0.59017 
L 4.755283 -1.545085 
L 1.12257 -1.545085 
z
" style="stroke: #f781bf; stroke-linejoin: bevel"/>
    </defs>
    <g>
     <use xlink:href="#m7bdfa6c5f2" x="738.297872" y="23.7" style="fill-opacity: 0; stroke: #f781bf; stroke-linejoin: bevel"/>
    </g>
   </g>
   <g id="text_19">
    <!-- Logistics -->
    <g transform="translate(777.897872 31.4)scale(0.22 -0.22)">
     <defs>
      <path id="CMR17-4c" d="M 3469 1612 
L 3354 1612 
C 3302 981 3219 166 2125 166 
L 1530 166 
C 1274 166 1261 198 1261 414 
L 1261 3892 
C 1261 4121 1274 4185 1760 4185 
L 1901 4185 
L 1901 4352 
C 1638 4339 1331 4339 1069 4339 
C 870 4339 512 4339 326 4352 
L 326 4185 
C 768 4185 838 4185 838 3898 
L 838 453 
C 838 166 768 166 326 166 
L 326 0 
L 3315 0 
L 3469 1612 
z
" transform="scale(0.015625)"/>
     </defs>
     <use xlink:href="#CMR17-4c" transform="scale(0.996264)"/>
     <use xlink:href="#CMR17-6f" transform="translate(57.381408 0)scale(0.996264)"/>
     <use xlink:href="#CMR17-67" transform="translate(103.071885 0)scale(0.996264)"/>
     <use xlink:href="#CMR17-69" transform="translate(148.762362 0)scale(0.996264)"/>
     <use xlink:href="#CMR17-73" transform="translate(173.633421 0)scale(0.996264)"/>
     <use xlink:href="#CMR17-74" transform="translate(209.434758 0)scale(0.996264)"/>
     <use xlink:href="#CMR17-69" transform="translate(244.715526 0)scale(0.996264)"/>
     <use xlink:href="#CMR17-63" transform="translate(269.586584 0)scale(0.996264)"/>
     <use xlink:href="#CMR17-73" transform="translate(310.072245 0)scale(0.996264)"/>
    </g>
   </g>
   <g id="line2d_20">
    <path d="M 716.297872 54.363188 
L 738.297872 54.363188 
L 760.297872 54.363188 
" style="fill: none"/>
    <defs>
     <path id="m844242a60e" d="M -0 7.071068 
L 7.071068 0 
L 0 -7.071068 
L -7.071068 -0 
z
" style="stroke: #000055; stroke-linejoin: miter"/>
    </defs>
    <g>
     <use xlink:href="#m844242a60e" x="738.297872" y="54.363188" style="fill-opacity: 0; stroke: #000055; stroke-linejoin: miter"/>
    </g>
   </g>
   <g id="text_20">
    <!-- Hiking -->
    <g transform="translate(777.897872 62.063188)scale(0.22 -0.22)">
     <use xlink:href="#CMR17-48" transform="scale(0.996264)"/>
     <use xlink:href="#CMR17-69" transform="translate(69.07243 0)scale(0.996264)"/>
     <use xlink:href="#CMR17-6b" transform="translate(93.943488 0)scale(0.996264)"/>
     <use xlink:href="#CMR17-69" transform="translate(142.236404 0)scale(0.996264)"/>
     <use xlink:href="#CMR17-6e" transform="translate(167.107463 0)scale(0.996264)"/>
     <use xlink:href="#CMR17-67" transform="translate(218.002832 0)scale(0.996264)"/>
    </g>
   </g>
   <g id="line2d_21">
    <path d="M 716.297872 85.026376 
L 738.297872 85.026376 
L 760.297872 85.026376 
" style="fill: none"/>
    <defs>
     <path id="m1c1bc2e3a7" d="M -5 5 
L 5 5 
L 5 -5 
L -5 -5 
z
" style="stroke: #f781bf; stroke-linejoin: miter"/>
    </defs>
    <g>
     <use xlink:href="#m1c1bc2e3a7" x="738.297872" y="85.026376" style="fill-opacity: 0; stroke: #f781bf; stroke-linejoin: miter"/>
    </g>
   </g>
   <g id="text_21">
    <!-- Childsnack -->
    <g transform="translate(777.897872 92.726376)scale(0.22 -0.22)">
     <defs>
      <path id="CMR17-43" d="M 3974 4351 
C 3974 4467 3968 4473 3930 4473 
C 3904 4473 3898 4467 3853 4390 
L 3571 3849 
C 3258 4249 2874 4480 2381 4480 
C 1286 4480 294 3507 294 2179 
C 294 837 1286 -128 2387 -128 
C 3366 -128 3974 741 3974 1482 
C 3974 1547 3974 1573 3917 1573 
C 3866 1573 3866 1553 3859 1495 
C 3808 592 3168 38 2477 38 
C 1824 38 781 502 781 2179 
C 781 3862 1843 4313 2464 4313 
C 3187 4313 3712 3681 3834 2785 
C 3846 2707 3846 2695 3904 2695 
C 3974 2695 3974 2707 3974 2824 
L 3974 4351 
z
" transform="scale(0.015625)"/>
      <path id="CMR17-68" d="M 2656 1954 
C 2656 2282 2592 2816 1837 2816 
C 1312 2816 1056 2392 979 2179 
L 973 2179 
L 973 4416 
L 211 4345 
L 211 4179 
C 589 4179 646 4141 646 3843 
L 646 443 
C 646 198 621 166 211 166 
L 211 0 
C 365 12 646 12 813 12 
C 979 12 1267 12 1421 0 
L 1421 166 
C 1011 166 986 192 986 443 
L 986 1678 
C 986 2269 1344 2713 1792 2713 
C 2266 2713 2317 2289 2317 1980 
L 2317 443 
C 2317 198 2291 166 1882 166 
L 1882 0 
C 2035 12 2317 12 2483 12 
C 2650 12 2938 12 3091 0 
L 3091 166 
C 2682 166 2656 192 2656 443 
L 2656 1954 
z
" transform="scale(0.015625)"/>
     </defs>
     <use xlink:href="#CMR17-43" transform="scale(0.996264)"/>
     <use xlink:href="#CMR17-68" transform="translate(66.509881 0)scale(0.996264)"/>
     <use xlink:href="#CMR17-69" transform="translate(117.40525 0)scale(0.996264)"/>
     <use xlink:href="#CMR17-6c" transform="translate(142.276309 0)scale(0.996264)"/>
     <use xlink:href="#CMR17-64" transform="translate(167.147367 0)scale(0.996264)"/>
     <use xlink:href="#CMR17-73" transform="translate(218.042737 0)scale(0.996264)"/>
     <use xlink:href="#CMR17-6e" transform="translate(253.844075 0)scale(0.996264)"/>
     <use xlink:href="#CMR17-61" transform="translate(304.739444 0)scale(0.996264)"/>
     <use xlink:href="#CMR17-63" transform="translate(350.429922 0)scale(0.996264)"/>
     <use xlink:href="#CMR17-6b" transform="translate(388.313128 0)scale(0.996264)"/>
    </g>
   </g>
   <g id="line2d_22">
    <path d="M 716.297872 115.689564 
L 738.297872 115.689564 
L 760.297872 115.689564 
" style="fill: none"/>
    <defs>
     <path id="m3b30acf896" d="M 0 -5 
L -4.755283 -1.545085 
L -2.938926 4.045085 
L 2.938926 4.045085 
L 4.755283 -1.545085 
z
" style="stroke: #000055; stroke-linejoin: miter"/>
    </defs>
    <g>
     <use xlink:href="#m3b30acf896" x="738.297872" y="115.689564" style="fill-opacity: 0; stroke: #000055; stroke-linejoin: miter"/>
    </g>
   </g>
   <g id="text_22">
    <!-- AssemblyH -->
    <g transform="translate(777.897872 123.389564)scale(0.22 -0.22)">
     <defs>
      <path id="CMR17-41" d="M 2323 4441 
C 2291 4524 2278 4544 2214 4544 
C 2150 4544 2138 4524 2106 4441 
L 749 580 
C 627 236 371 166 147 166 
L 147 0 
C 262 12 518 12 640 12 
C 800 12 1056 12 1210 0 
L 1210 166 
C 909 179 864 382 864 459 
C 864 516 877 548 890 586 
L 1229 1536 
L 2906 1536 
L 3290 453 
C 3322 376 3322 363 3322 338 
C 3322 166 3046 166 2925 166 
L 2925 0 
C 3110 12 3443 12 3642 12 
C 3808 12 4128 12 4282 0 
L 4282 166 
C 3942 166 3827 166 3744 402 
L 2323 4441 
z
M 2067 3924 
L 2848 1702 
L 1286 1702 
L 2067 3924 
z
" transform="scale(0.015625)"/>
      <path id="CMR17-79" d="M 2496 2183 
C 2656 2579 2944 2585 3034 2585 
L 3034 2752 
C 2912 2745 2752 2739 2630 2739 
C 2496 2739 2285 2739 2157 2752 
L 2157 2585 
C 2400 2566 2406 2384 2406 2332 
C 2406 2268 2394 2235 2362 2158 
L 1664 409 
L 902 2300 
C 870 2378 870 2423 870 2430 
C 870 2572 1018 2585 1171 2585 
L 1171 2752 
C 1018 2739 742 2739 582 2739 
C 410 2739 205 2739 64 2752 
L 64 2585 
C 410 2585 448 2553 531 2345 
L 1485 -31 
C 1197 -795 1030 -1242 627 -1242 
C 557 -1242 397 -1223 282 -1106 
C 429 -1093 493 -1002 493 -892 
C 493 -782 416 -685 288 -685 
C 147 -685 77 -782 77 -899 
C 77 -1158 339 -1344 627 -1344 
C 998 -1344 1229 -983 1357 -659 
L 2496 2183 
z
" transform="scale(0.015625)"/>
     </defs>
     <use xlink:href="#CMR17-41" transform="scale(0.996264)"/>
     <use xlink:href="#CMR17-73" transform="translate(69.07243 0)scale(0.996264)"/>
     <use xlink:href="#CMR17-73" transform="translate(104.873767 0)scale(0.996264)"/>
     <use xlink:href="#CMR17-65" transform="translate(140.675105 0)scale(0.996264)"/>
     <use xlink:href="#CMR17-6d" transform="translate(181.160766 0)scale(0.996264)"/>
     <use xlink:href="#CMR17-62" transform="translate(255.477901 0)scale(0.996264)"/>
     <use xlink:href="#CMR17-6c" transform="translate(306.373271 0)scale(0.996264)"/>
     <use xlink:href="#CMR17-79" transform="translate(331.24433 0)scale(0.996264)"/>
     <use xlink:href="#CMR17-48" transform="translate(379.537246 0)scale(0.996264)"/>
    </g>
   </g>
   <g id="line2d_23">
    <path d="M 716.297872 146.352751 
L 738.297872 146.352751 
L 760.297872 146.352751 
" style="fill: none"/>
    <defs>
     <path id="m7be3f69330" d="M 0 0 
L 0 -5 
M 0 0 
L -4 2.5 
M 0 0 
L 4 2.5 
" style="stroke: #f781bf"/>
    </defs>
    <g>
     <use xlink:href="#m7be3f69330" x="738.297872" y="146.352751" style="fill-opacity: 0; stroke: #f781bf"/>
    </g>
   </g>
   <g id="text_23">
    <!-- Minecraft-P -->
    <g transform="translate(777.897872 154.052751)scale(0.22 -0.22)">
     <use xlink:href="#CMR17-4d" transform="scale(0.996264)"/>
     <use xlink:href="#CMR17-69" transform="translate(84.686941 0)scale(0.996264)"/>
     <use xlink:href="#CMR17-6e" transform="translate(109.557999 0)scale(0.996264)"/>
     <use xlink:href="#CMR17-65" transform="translate(160.453369 0)scale(0.996264)"/>
     <use xlink:href="#CMR17-63" transform="translate(200.939029 0)scale(0.996264)"/>
     <use xlink:href="#CMR17-72" transform="translate(241.42469 0)scale(0.996264)"/>
     <use xlink:href="#CMR17-61" transform="translate(276.705458 0)scale(0.996264)"/>
     <use xlink:href="#CMR17-66" transform="translate(322.395935 0)scale(0.996264)"/>
     <use xlink:href="#CMR17-74" transform="translate(349.869447 0)scale(0.996264)"/>
     <use xlink:href="#CMR17-2d" transform="translate(385.150215 0)scale(0.996264)"/>
     <use xlink:href="#CMR17-50" transform="translate(415.226181 0)scale(0.996264)"/>
    </g>
   </g>
   <g id="line2d_24">
    <path d="M 716.297872 177.015939 
L 738.297872 177.015939 
L 760.297872 177.015939 
" style="fill: none"/>
    <defs>
     <path id="m0e5c62791a" d="M 0 -5 
L -1.12257 -1.545085 
L -4.755283 -1.545085 
L -1.816356 0.59017 
L -2.938926 4.045085 
L -0 1.90983 
L 2.938926 4.045085 
L 1.816356 0.59017 
L 4.755283 -1.545085 
L 1.12257 -1.545085 
z
" style="stroke: #000055; stroke-linejoin: bevel"/>
    </defs>
    <g>
     <use xlink:href="#m0e5c62791a" x="738.297872" y="177.015939" style="fill-opacity: 0; stroke: #000055; stroke-linejoin: bevel"/>
    </g>
   </g>
   <g id="text_24">
    <!-- Rover-GTOHP -->
    <g transform="translate(777.897872 184.715939)scale(0.22 -0.22)">
     <use xlink:href="#CMR17-52" transform="scale(0.996264)"/>
     <use xlink:href="#CMR17-6f" transform="translate(67.791102 0)scale(0.996264)"/>
     <use xlink:href="#CMR17-76" transform="translate(110.879125 0)scale(0.996264)"/>
     <use xlink:href="#CMR17-65" transform="translate(156.569587 0)scale(0.996264)"/>
     <use xlink:href="#CMR17-72" transform="translate(197.055248 0)scale(0.996264)"/>
     <use xlink:href="#CMR17-2d" transform="translate(232.336015 0)scale(0.996264)"/>
     <use xlink:href="#CMR17-47" transform="translate(262.411982 0)scale(0.996264)"/>
     <use xlink:href="#CMR17-54" transform="translate(334.767328 0)scale(0.996264)"/>
     <use xlink:href="#CMR17-4f" transform="translate(401.277208 0)scale(0.996264)"/>
     <use xlink:href="#CMR17-48" transform="translate(472.991997 0)scale(0.996264)"/>
     <use xlink:href="#CMR17-50" transform="translate(542.064426 0)scale(0.996264)"/>
    </g>
   </g>
  </g>
 </g>
</svg>
